<svg xmlns="http://www.w3.org/2000/svg" viewBox="0 0 1600 900" width="1600" height="900" role="img" aria-labelledby="title desc" font-family="'Microsoft JhengHei','Noto Sans TC',sans-serif">
<title id="title">美国 SEC 与 CFTC 联名解释令：五类加密资产，刊登当天生效</title><desc id="desc">原创插图：左边两个圆形代表两个委员会，各以一条线连到中间的一份文件，文件右边的箭头指向一个打勾的圆，代表这份解释令已经生效</desc>
<rect width="1600" height="900" fill="#F7F1E8"/><text x="80" y="100" font-size="34" font-weight="600" fill="#D97A2B" text-anchor="start">MOKAAIR  /  CRYPTO NEWS</text><text x="1510" y="100" font-size="28" font-weight="600" fill="#2F6F9F" text-anchor="end">2026-03-23</text><path d="M410 310 L670 400" fill="none" stroke="#2F6F9F" stroke-width="10" stroke-linecap="round"/><path d="M410 550 L670 460" fill="none" stroke="#D97A2B" stroke-width="10" stroke-linecap="round"/><circle cx="330" cy="310" r="84" fill="#FFFFFF" stroke="#2F6F9F" stroke-width="6"/><circle cx="330" cy="310" r="30" fill="#2F6F9F" stroke="none" stroke-width="6"/><circle cx="330" cy="550" r="84" fill="#FFFFFF" stroke="#D97A2B" stroke-width="6"/><circle cx="330" cy="550" r="30" fill="#D97A2B" stroke="none" stroke-width="6"/><rect x="680" y="255" width="270" height="350" rx="24" fill="#FFFFFF" stroke="#102A2B" stroke-width="6"/><path d="M715 310 L915 310" fill="none" stroke="#C4CCCC" stroke-width="12" stroke-linecap="round"/><path d="M715 354 L885 354" fill="none" stroke="#C4CCCC" stroke-width="12" stroke-linecap="round"/><path d="M715 398 L915 398" fill="none" stroke="#C4CCCC" stroke-width="12" stroke-linecap="round"/><path d="M715 442 L885 442" fill="none" stroke="#C4CCCC" stroke-width="12" stroke-linecap="round"/><path d="M715 486 L915 486" fill="none" stroke="#C4CCCC" stroke-width="12" stroke-linecap="round"/><path d="M715 530 L885 530" fill="none" stroke="#C4CCCC" stroke-width="12" stroke-linecap="round"/><path d="M985 430 L1096 430" fill="none" stroke="#2F6F9F" stroke-width="12" stroke-linecap="round"/><path d="M1074 400 L1110 430 L1074 460" fill="none" stroke="#2F6F9F" stroke-width="12" stroke-linecap="round" stroke-linejoin="round"/><circle cx="1215" cy="430" r="84" fill="#FFFFFF" stroke="#2F6F9F" stroke-width="6"/><path d="M1177.2 430 l27.720000000000002 30.24 l54.6 -64.68" stroke="#2F6F9F" fill="none" stroke-width="14" stroke-linecap="round" stroke-linejoin="round"/><text x="800" y="805" font-size="48" font-weight="600" fill="#102A2B" text-anchor="middle">解释令，刊登当天生效</text><text x="1535" y="868" font-size="20" font-weight="600" fill="#5C6B6B" text-anchor="end">© Mokaair 制图 2026</text></svg>