<svg xmlns="http://www.w3.org/2000/svg" viewBox="0 0 1600 900" width="1600" height="900" role="img" aria-labelledby="title desc" font-family="'Noto Sans TC','Noto Sans JP','PingFang TC','Microsoft JhengHei','Hiragino Sans',system-ui,sans-serif"><title id="title">接地（Grounding）：讓回答連到可查的來源</title><desc id="desc">上方一個對話框有三行文字，三條彩色細線各自向下連到站在地面上的一份文件，每份文件有一行被標色；放大鏡正在檢視中間那份文件的標色行</desc><rect width="1600" height="900" fill="#F7F1E8"/><rect x="0" y="740" width="1600" height="160" fill="#E3F0EF"/><path d="M 0 740 L 1600 740" fill="none" stroke="#0D6B68" stroke-width="8"/><path d="M 380 213 L 262 272 L 380 314" fill="#FFFFFF" stroke="#0D6B68" stroke-width="8" stroke-linejoin="round"/><rect x="350" y="80" width="900" height="270" rx="60" fill="#FFFFFF" stroke="#0D6B68" stroke-width="8"/><rect x="342" y="236" width="16" height="62" fill="#FFFFFF"/><rect x="430" y="130" width="600" height="34" rx="17" fill="#0D6B68"/><rect x="430" y="195" width="700" height="34" rx="17" fill="#D97A2B"/><rect x="430" y="260" width="450" height="34" rx="17" fill="#2F6F9F"/><path d="M 560 350 C 560 420 400 400 400 470" fill="none" stroke="#0D6B68" stroke-width="7"/><path d="M 800 350 L 800 470" fill="none" stroke="#D97A2B" stroke-width="7"/><path d="M 1040 350 C 1040 420 1200 400 1200 470" fill="none" stroke="#2F6F9F" stroke-width="7"/><rect x="250" y="470" width="300" height="270" rx="14" fill="#FFFFFF" stroke="#2F6F9F" stroke-width="6"/><rect x="280" y="505" width="140" height="22" rx="11" fill="#E6F0F7"/><rect x="280" y="550" width="240" height="22" rx="11" fill="#E6F0F7"/><rect x="280" y="590" width="240" height="22" rx="11" fill="#0D6B68"/><rect x="280" y="630" width="240" height="22" rx="11" fill="#E6F0F7"/><rect x="280" y="670" width="160" height="22" rx="11" fill="#E6F0F7"/><rect x="650" y="470" width="300" height="270" rx="14" fill="#FFFFFF" stroke="#2F6F9F" stroke-width="6"/><rect x="680" y="505" width="140" height="22" rx="11" fill="#E6F0F7"/><rect x="680" y="550" width="240" height="22" rx="11" fill="#E6F0F7"/><rect x="680" y="590" width="240" height="22" rx="11" fill="#D97A2B"/><rect x="680" y="630" width="240" height="22" rx="11" fill="#E6F0F7"/><rect x="680" y="670" width="160" height="22" rx="11" fill="#E6F0F7"/><rect x="1050" y="470" width="300" height="270" rx="14" fill="#FFFFFF" stroke="#2F6F9F" stroke-width="6"/><rect x="1080" y="505" width="140" height="22" rx="11" fill="#E6F0F7"/><rect x="1080" y="550" width="240" height="22" rx="11" fill="#E6F0F7"/><rect x="1080" y="590" width="240" height="22" rx="11" fill="#2F6F9F"/><rect x="1080" y="630" width="240" height="22" rx="11" fill="#E6F0F7"/><rect x="1080" y="670" width="160" height="22" rx="11" fill="#E6F0F7"/><circle cx="560" cy="350" r="15" fill="#FFFFFF" stroke="#0D6B68" stroke-width="7"/><circle cx="400" cy="470" r="15" fill="#FFFFFF" stroke="#0D6B68" stroke-width="7"/><circle cx="800" cy="350" r="15" fill="#FFFFFF" stroke="#D97A2B" stroke-width="7"/><circle cx="800" cy="470" r="15" fill="#FFFFFF" stroke="#D97A2B" stroke-width="7"/><circle cx="1040" cy="350" r="15" fill="#FFFFFF" stroke="#2F6F9F" stroke-width="7"/><circle cx="1200" cy="470" r="15" fill="#FFFFFF" stroke="#2F6F9F" stroke-width="7"/><circle cx="905" cy="615" r="52" fill="none" stroke="#102A2B" stroke-width="10"/><path d="M 942 652 L 1000 712" fill="none" stroke="#102A2B" stroke-width="18" stroke-linecap="round"/></svg>
