<svg xmlns="http://www.w3.org/2000/svg" viewBox="0 0 1600 900" width="1600" height="900" role="img" aria-labelledby="title desc" font-family="'Noto Sans TC','Noto Sans JP','PingFang TC','Microsoft JhengHei','Hiragino Sans',system-ui,sans-serif">
<title id="title">財務文件整理：保單、對帳單與稅單放哪裡才找得到</title>
<desc id="desc">四份大小相同的白色文件並排立在一個開口向上的圓角收納盒裡，上半截露在盒外；每一份文件的頂端有一條顏色不同的標籤條，分別是綠、藍、橘、深綠，文件上有兩道短橫線代表文字。收納盒正面貼著一張白色索引卡，卡上有兩行線條。盒子右側有一把橘色的鑰匙，圓環在左、齒在右。</desc>
<rect width="1600" height="900" fill="#F7F1E8"/>
<g transform="translate(-29,0)">
<rect x="250" y="170" width="140" height="390" rx="16" fill="#FFFFFF"/>
<path d="M 250 236 V 186 A 16 16 0 0 1 266 170 H 374 A 16 16 0 0 1 390 186 V 236 Z" fill="#0D6B68"/>
<rect x="250" y="170" width="140" height="390" rx="16" fill="none" stroke="#0D6B68" stroke-width="10"/>
<path d="M 278 290 H 362 M 278 330 H 340" stroke="#5C6B6B" stroke-width="10" stroke-linecap="round"/>

<rect x="434" y="170" width="140" height="390" rx="16" fill="#FFFFFF"/>
<path d="M 434 236 V 186 A 16 16 0 0 1 450 170 H 558 A 16 16 0 0 1 574 186 V 236 Z" fill="#2F6F9F"/>
<rect x="434" y="170" width="140" height="390" rx="16" fill="none" stroke="#0D6B68" stroke-width="10"/>
<path d="M 462 290 H 546 M 462 330 H 524" stroke="#5C6B6B" stroke-width="10" stroke-linecap="round"/>

<rect x="618" y="170" width="140" height="390" rx="16" fill="#FFFFFF"/>
<path d="M 618 236 V 186 A 16 16 0 0 1 634 170 H 742 A 16 16 0 0 1 758 186 V 236 Z" fill="#D97A2B"/>
<rect x="618" y="170" width="140" height="390" rx="16" fill="none" stroke="#0D6B68" stroke-width="10"/>
<path d="M 646 290 H 730 M 646 330 H 708" stroke="#5C6B6B" stroke-width="10" stroke-linecap="round"/>

<rect x="802" y="170" width="140" height="390" rx="16" fill="#FFFFFF"/>
<path d="M 802 236 V 186 A 16 16 0 0 1 818 170 H 926 A 16 16 0 0 1 942 186 V 236 Z" fill="#2E7D5B"/>
<rect x="802" y="170" width="140" height="390" rx="16" fill="none" stroke="#0D6B68" stroke-width="10"/>
<path d="M 830 290 H 914 M 830 330 H 892" stroke="#5C6B6B" stroke-width="10" stroke-linecap="round"/>

<path d="M 216 442 V 682 Q 216 722 256 722 H 936 Q 976 722 976 682 V 442 Z" fill="#E3F0EF"/>
<path d="M 216 442 V 682 Q 216 722 256 722 H 936 Q 976 722 976 682 V 442" fill="none" stroke="#0D6B68" stroke-width="16" stroke-linecap="round" stroke-linejoin="round"/>

<rect x="496" y="520" width="200" height="110" rx="18" fill="#FFFFFF" stroke="#0D6B68" stroke-width="10"/>
<path d="M 528 556 H 664 M 528 592 H 620" stroke="#5C6B6B" stroke-width="10" stroke-linecap="round"/>

<circle cx="1230" cy="454" r="62" fill="none" stroke="#D97A2B" stroke-width="20"/>
<path d="M 1292 454 H 1440" stroke="#D97A2B" stroke-width="20" stroke-linecap="round"/>
<path d="M 1372 454 V 506" stroke="#D97A2B" stroke-width="20" stroke-linecap="round"/>
<path d="M 1422 454 V 498" stroke="#D97A2B" stroke-width="20" stroke-linecap="round"/>
</g>
</svg>
